<svg xmlns="http://www.w3.org/2000/svg" viewBox="0 0 512 512">
  <rect width="512" height="512" rx="64" fill="#c7242d"/>
  <g transform="translate(100, 100) scale(2.03)">
    <path d="M64.017,152.8222c-4.8541-2.7726-8.5077-6.5934-10.9357-11.4354-1.6207-3.2336-2.6343-7.2753-2.6867-10.7127-.0755-4.9984-.8513-8.6663-2.6224-12.3919-4.3722-9.1994-13.7441-15.1074-23.9625-15.1074-4.0377,0-7.9572-.9131-11.6265-2.7094-3.0411-1.4881-5.1316-3.0322-7.5927-5.6062-1.627-1.7023-2.6977-3.128-3.829-5.0976l-.7614-1.3257v-23.4921l.7444-1.3c2.587-4.5191,6.607-8.346,11.167-10.6297,3.3102-1.6576,7.5648-2.74,10.7989-2.7468,1.8249-.004,4.5947-.2597,6.2371-.5764,9.2312-1.7772,16.9798-8.5881,19.98-17.5611,.858-2.5672,1.2061-4.6523,1.3421-8.0421,.2129-5.3103,.822-8.0251,2.6549-11.8351,2.3517-4.8855,5.8448-8.6539,10.6583-11.4992l1.2742-.7533,11.884,.0021,11.8834,.0012,1.0777,.5902c5.5857,3.058,10.1803,8.6337,12.2111,14.8192,.7708,2.3468,1.1163,4.3083,1.2712,7.2133,.1782,3.334,.3469,5.0752,.618,6.388,1.6459,7.9701,6.7742,14.6559,14.0617,18.3347,3.8711,1.9538,8.1748,2.9139,13.0706,2.9153,3.2933,.0014,8.0803,1.304,11.3661,3.094,4.5605,2.4843,8.688,6.6451,10.8424,10.931l.4351,.8661v23.1924l-.7308,1.2897c-3.2681,5.766-8.4862,10.0853-14.6634,12.1392-5.292,1.7594-10.5392,1.8486-15.8789,.2698l-.9893-.2922-16.5969-16.6106-.361-1.253c-.6412-2.2219-.9145-4.2356-1.041-7.658-.0693-1.8778-.2108-3.6713-.3413-4.3355-1.104-5.6015-3.6291-10.3054-7.6178-14.1923-4.0547-3.9514-8.4855-6.1964-14.3214-7.2568-1.0021-.1815-2.1009-.2407-4.5252-.2414-2.9473-.0014-3.3417,.0279-4.946,.3705-3.5544,.7594-7.3808,2.4142-10.1512,4.3905-1.512,1.0784-3.99,3.4007-5.1704,4.8454-2.6168,3.2016-4.619,7.3794-5.4097,11.2879-.6349,3.1347-.7322,7.3677-.2325,10.1443,1.7072,9.4937,8.3488,17.3359,17.3218,20.453,2.9784,1.0349,4.6468,1.3224,8.5881,1.4808,3.2538,.1305,5.3948,.4255,7.4398,1.026l1.1748,.3446,16.8266,16.8268,.3394,1.168c.6988,2.402,.9252,4.1512,.9252,7.1549,0,2.2287-.0585,3.105-.2931,4.3858-1.3564,7.4255-5.4273,13.6158-11.6543,17.7216-.6887,.4541-1.6111,1.0076-2.0497,1.2291l-.7961,.404-11.6653-.0014-11.6651-.0021-1.0763-.6146v.0007Z" fill="#ffffff"/>
  </g>
</svg>
