<?xml version="1.0" encoding="UTF-8"?>
<svg id="Layer_1" data-name="Layer 1" xmlns="http://www.w3.org/2000/svg" viewBox="0 0 608.6051 153.8623">
  <path id="type" d="M280.1452,65.9553c2.1015-.3664,3.3191-.6541,4.6637-1.1028,5.7763-1.9274,9.2565-5.9712,10.5047-12.2064,.9376-4.6815,.6798-10.6262-.6323-14.5797-2.1946-6.6124-7.4316-10.1995-16.1271-11.0458-1.0029-.0973-9.1571-.1483-23.9456-.1483h-22.4241l-2.0261,2.0125v35.3667l1.0096,1.0164,1.0096,1.0171,23.3222-.0498c20.9358-.0447,23.4574-.0733,24.6453-.28h0Zm133.8762-4.1369c2.7541-.3074,4.7802-.8751,6.7532-1.8922,4.1565-2.1429,6.6565-5.6788,7.8157-11.0539,.2767-1.2836,.3154-1.8616,.3161-4.7339,.0014-3.5102-.1495-4.8122-.8424-7.2407-.4487-1.5753-1.5493-3.7584-2.4549-4.87-2.0076-2.4631-4.9563-4.0417-9.0116-4.8249-1.2375-.2393-2.5829-.2585-20.8095-.2964l-19.4865-.0416-2.1713,2.1594v30.6328l2.2912,2.3033,18.1736-.0014c11.2347-.0007,18.6515-.0543,19.4265-.1406h0Zm-213.4188,90.9561l-1.0763-1.0817V2.7085l1.0878-1.0808,1.0878-1.0817,38.4902,.0517c39.3534,.0522,39.1197,.0496,43.6428,.5907,10.901,1.3046,20.2846,4.9114,27.3599,10.5176,1.6949,1.3428,4.6986,4.3009,5.9917,5.9005,2.4788,3.0676,5.1234,7.7839,6.4608,11.5224,2.2476,6.2841,3.232,13.9298,2.7167,21.1092-.6906,9.6298-3.7434,17.8472-9.3209,25.0893-1.572,2.0409-5.4553,5.8312-7.6581,7.4751-4.3587,3.2512-9.1381,5.6551-14.0631,7.0734l-1.601,.4609-.0666,2.3251,14.2004,18.5659,14.2003,18.5652v21.9122l-1.0815,1.0761-1.0824,1.0756h-13.1494l-4.2587-2.1239-43.8487-57.0205-4.2506-2.1199h-22.2127l-1.0062,1.013-1.0064,1.0124v57.0872l-1.0815,1.0761-1.0824,1.0756h-26.3163l-1.0756-1.0824Zm143.9737,.0028l-1.0782-1.0845V2.8479l1.151-1.1456,1.1517-1.1456,35.224,.0014c21.3071,.0007,36.2695,.0557,37.87,.1387,21.4573,1.1163,36.1446,12.0541,39.7294,29.5872,1.5957,7.8056,1.1926,16.4032-1.0953,23.3636-2.529,7.6941-7.3181,13.4397-14.1113,16.9295-1.427,.7336-3.6856,1.65-5.0214,2.0383l-.7853,.2284,.0407,1.1163,.0402,1.1163,1.6011,.4611c6.974,2.0062,12.7434,5.6722,16.7594,10.6475,4.2131,5.2207,6.6484,11.5937,7.6356,19.9833,.2849,2.4189,.2393,10.3686-.0727,12.8102-.6833,5.3403-1.9451,9.7377-3.997,13.9305-5.1772,10.5787-15.2548,17.601-28.7516,20.0336-4.9875,.8988-1.6949,.8349-45.4588,.8798l-39.7525,.04-1.0789-1.085Zm69.9326-25.2421c11.1097-.7827,16.7588-5.2078,18.4786-14.4744,.1965-1.0592,.2456-2.0873,.2456-5.1521s-.0491-4.0929-.2456-5.1521c-1.0932-5.8902-3.6543-9.6282-8.2087-11.9806-2.1646-1.1182-4.7054-1.8512-8.2515-2.3808-.8096-.1211-6.4369-.1808-20.5978-.219l-19.4838-.0517-1.1578,1.1517-1.1577,1.1524v34.9487l2.2912,2.3035,18.0341-.0014c10.8507-.0014,18.8384-.0585,20.0534-.1441h0Zm61.5041,25.2393l-1.0754-1.0817v-21.683l25.2026-63.5758,25.2035-63.5758,1.1441-1.151,1.1449-1.1504h28.2771l1.1402,1.1491,1.1409,1.1482,25.2067,63.5759,25.2075,63.5758v21.6994l-1.0824,1.0761-1.0824,1.0756h-19.7719l-1.0741-1.081-1.0742-1.0803-10.9581-28.5164-4.2913-2.1674-27.4661-.0075-27.4666-.0075-2.1912,1.0994-2.1913,1.1-10.946,28.5246-2.1482,2.1361h-19.772l-1.0764-1.0824Zm85.4834-59.103l1.1306-1.1482-19.6986-52.4927h-2.3143l-9.8491,26.2464-9.85,26.2463,1.1313,1.1482,1.1306,1.1491h37.1887l1.1307-1.1491ZM64.017,152.8222c-4.8541-2.7726-8.5077-6.5934-10.9357-11.4354-1.6207-3.2336-2.6343-7.2753-2.6867-10.7127-.0755-4.9984-.8513-8.6663-2.6224-12.3919-4.3722-9.1994-13.7441-15.1074-23.9625-15.1074-4.0377,0-7.9572-.9131-11.6265-2.7094-3.0411-1.4881-5.1316-3.0322-7.5927-5.6062-1.627-1.7023-2.6977-3.128-3.829-5.0976l-.7614-1.3257v-23.4921l.7444-1.3c2.587-4.5191,6.607-8.346,11.167-10.6297,3.3102-1.6576,7.5648-2.74,10.7989-2.7468,1.8249-.004,4.5947-.2597,6.2371-.5764,9.2312-1.7772,16.9798-8.5881,19.98-17.5611,.858-2.5672,1.2061-4.6523,1.3421-8.0421,.2129-5.3103,.822-8.0251,2.6549-11.8351,2.3517-4.8855,5.8448-8.6539,10.6583-11.4992l1.2742-.7533,11.884,.0021,11.8834,.0012,1.0777,.5902c5.5857,3.058,10.1803,8.6337,12.2111,14.8192,.7708,2.3468,1.1163,4.3083,1.2712,7.2133,.1782,3.334,.3469,5.0752,.618,6.388,1.6459,7.9701,6.7742,14.6559,14.0617,18.3347,3.8711,1.9538,8.1748,2.9139,13.0706,2.9153,3.2933,.0014,8.0803,1.304,11.3661,3.094,4.5605,2.4843,8.688,6.6451,10.8424,10.931l.4351,.8661v23.1924l-.7308,1.2897c-3.2681,5.766-8.4862,10.0853-14.6634,12.1392-5.292,1.7594-10.5392,1.8486-15.8789,.2698l-.9893-.2922-16.5969-16.6106-.361-1.253c-.6412-2.2219-.9145-4.2356-1.041-7.658-.0693-1.8778-.2108-3.6713-.3413-4.3355-1.104-5.6015-3.6291-10.3054-7.6178-14.1923-4.0547-3.9514-8.4855-6.1964-14.3214-7.2568-1.0021-.1815-2.1009-.2407-4.5252-.2414-2.9473-.0014-3.3417,.0279-4.946,.3705-3.5544,.7594-7.3808,2.4142-10.1512,4.3905-1.512,1.0784-3.99,3.4007-5.1704,4.8454-2.6168,3.2016-4.619,7.3794-5.4097,11.2879-.6349,3.1347-.7322,7.3677-.2325,10.1443,1.7072,9.4937,8.3488,17.3359,17.3218,20.453,2.9784,1.0349,4.6468,1.3224,8.5881,1.4808,3.2538,.1305,5.3948,.4255,7.4398,1.026l1.1748,.3446,16.8266,16.8268,.3394,1.168c.6988,2.402,.9252,4.1512,.9252,7.1549,0,2.2287-.0585,3.105-.2931,4.3858-1.3564,7.4255-5.4273,13.6158-11.6543,17.7216-.6887,.4541-1.6111,1.0076-2.0497,1.2291l-.7961,.404-11.6653-.0014-11.6651-.0021-1.0763-.6146v.0007Zm0,0" style="fill: #ffffff;"/>
</svg>